Genre:Drama | Family | History
Language:English
 
http://www.imdb.com/title/tt1028576/

Source:BluRay.x264-METiS


Format : Matroska
File size : 2.29 GiB
Duration : 2h 2mn
Overall bit rate : 2 661 Kbps


Video
Format settings, CABAC : Yes
Format settings, ReFrames : 4 frames
Format settings, GOP : M=1, N=32
Codec ID : V_MPEG4/ISO/AVC
Duration : 2h 2mn
Bit rate : 2 300 Kbps
Width : 1 280 pixels
Height : 544 pixels
Display aspect ratio : 2.35:1
Frame rate mode : Variable
Frame rate : 23.976 fps
Color space : YUV
Chroma subsampling : 4:2:0
Bit depth : 8 bits
Scan type : Progressive
Bits/(Pixel*Frame) : 0.138
Stream size : 1.91 GiB (84%)
Writing library : x264


Audio
ID : 2
Format : AC-3
Format/Info : Audio Coding 3
Mode extension : CM (complete main)
Codec ID : A_AC3
Duration : 2h 2mn
Bit rate mode : Constant
Bit rate : 384 Kbps
Channel(s) : 6 channels
Channel positions : Front: L C R, Side: L R, LFE
Sampling rate : 48.0 KHz
Bit depth : 16 bits
Video delay : -1mn 5s
Stream size : 338 MiB (14%)
Language : English


Plot:
Penny Chenery Tweedy and colleagues guide her long-shot but precocious stallion to set, in 1973, the unbeaten record for winning the Triple Crown.

 
http://img291.imageshack.us/img291/8104/vlcsnap2010123010h20m01.png
 
http://img560.imageshack.us/img560/6185/vlcsnap2010123010h20m13.png
 
http://img407.imageshack.us/img407/227/vlcsnap2010123010h21m00.png
 
http://img63.imageshack.us/img63/330/vlcsnap2010123010h21m26.png
 
http://img156.imageshack.us/img156/1115/vlcsnap2010123010h21m37.png
 
http://img407.imageshack.us/img407/7815/vlcsnap2010123010h22m28.png